<?xml version="1.0" standalone="no"?>
<!DOCTYPE svg PUBLIC "-//W3C//DTD SVG 20010904//EN"
 "http://www.w3.org/TR/2001/REC-SVG-20010904/DTD/svg10.dtd">
<svg version="1.0" xmlns="http://www.w3.org/2000/svg"
 width="200.000000pt" height="200.000000pt" viewBox="0 0 200.000000 200.000000"
 preserveAspectRatio="xMidYMid meet">

<g transform="translate(0.000000,200.000000) scale(0.100000,-0.100000)"
fill="#000000" stroke="none">
<path d="M305 1238 c-34 -74 -58 -152 -35 -115 17 26 69 49 96 43 14 -4 34
-16 45 -27 31 -31 34 -16 10 49 -26 70 -57 122 -71 122 -6 0 -26 -33 -45 -72z
m73 -37 c-4 -19 -36 -27 -51 -12 -7 7 -6 20 3 42 l14 32 18 -23 c10 -13 17
-30 16 -39z"/>
<path d="M484 1284 c-8 -31 1 -137 12 -156 10 -16 21 20 23 77 l2 40 32 -40
c50 -63 76 -87 87 -80 12 8 13 155 1 174 -10 15 -18 -15 -23 -88 l-3 -33 -53
66 c-29 36 -57 66 -62 66 -5 0 -13 -12 -16 -26z"/>
<path d="M800 1216 c0 -52 4 -98 10 -101 13 -8 30 37 30 83 l0 36 30 -47 c16
-26 32 -47 35 -47 2 0 20 24 40 52 l35 53 1 -50 c0 -28 4 -59 8 -69 7 -18 8
-18 14 5 10 36 8 167 -2 173 -10 6 -49 -42 -75 -92 l-17 -34 -42 63 c-61 91
-67 88 -67 -25z"/>
<path d="M1117 1273 c-29 -46 -72 -152 -64 -159 5 -6 33 20 39 36 2 6 20 13
40 17 33 5 41 2 67 -26 16 -17 32 -27 35 -22 7 11 -66 175 -82 185 -7 4 -21
-10 -35 -31z m47 -41 c17 -32 7 -56 -20 -50 -23 4 -31 43 -14 64 16 19 17 18
34 -14z"/>
<path d="M1288 1304 c-5 -4 -8 -49 -8 -101 l0 -93 34 0 c49 0 96 11 90 21 -3
5 -20 9 -37 9 -18 0 -37 4 -43 8 -6 4 -15 42 -20 85 -5 44 -12 75 -16 71z"/>
<path d="M1414 1298 c3 -7 20 -50 38 -95 18 -45 36 -83 39 -83 4 0 10 17 14
38 3 20 20 58 36 83 47 74 33 100 -16 29 -15 -22 -31 -40 -35 -40 -4 0 -20 18
-35 40 -26 37 -54 56 -41 28z"/>
<path d="M1617 1297 c-10 -27 -8 -100 4 -135 14 -41 61 -61 98 -41 35 20 51
55 51 114 0 67 -16 93 -25 39 -15 -95 -21 -118 -37 -128 -29 -18 -52 5 -61 60
-16 92 -22 111 -30 91z"/>
<path d="M720 1215 c0 -50 4 -85 10 -85 6 0 10 35 10 85 0 50 -4 85 -10 85 -6
0 -10 -35 -10 -85z"/>
<path d="M1180 987 c0 -35 -33 -88 -72 -116 -34 -24 -443 -30 -489 -7 l-32 16
6 -48 c3 -26 18 -99 34 -162 21 -88 28 -107 30 -80 5 64 14 100 23 100 6 0 10
-19 11 -42 1 -41 1 -41 8 -12 11 46 21 59 32 43 5 -8 9 -25 10 -39 1 -20 4
-17 14 15 9 30 14 36 19 23 19 -54 19 -54 23 -33 9 45 17 49 23 10 l5 -40 16
45 16 45 16 -50 16 -50 0 42 c1 46 18 67 25 31 3 -13 7 -32 9 -43 4 -16 5 -15
6 5 1 14 6 32 11 40 7 12 11 8 16 -19 l7 -34 17 43 17 44 8 -50 8 -49 9 43
c12 54 28 45 29 -16 l1 -47 9 40 c15 64 21 74 28 40 7 -34 24 -37 29 -5 7 46
22 15 22 -47 l1 -68 38 90 c59 141 80 168 155 204 66 31 85 53 100 114 6 26 5
27 -36 27 -24 1 -79 7 -123 15 -44 8 -83 15 -87 15 -5 0 -8 -15 -8 -33z m125
-36 c3 -5 1 -13 -5 -16 -15 -9 -43 3 -35 15 8 13 32 13 40 1z"/>
</g>
</svg>
