<?xml version="1.0" standalone="no"?>
<!DOCTYPE svg PUBLIC "-//W3C//DTD SVG 20010904//EN"
 "http://www.w3.org/TR/2001/REC-SVG-20010904/DTD/svg10.dtd">
<svg version="1.0" xmlns="http://www.w3.org/2000/svg"
 width="198.000000pt" height="198.000000pt" viewBox="0 0 198.000000 198.000000"
 preserveAspectRatio="xMidYMid meet">

<g transform="translate(0.000000,198.000000) scale(0.100000,-0.100000)"
fill="#000000" stroke="none">
<path d="M772 1315 c0 -16 2 -22 5 -12 2 9 2 23 0 30 -3 6 -5 -1 -5 -18z"/>
<path d="M851 1234 c0 -11 3 -14 6 -6 3 7 2 16 -1 19 -3 4 -6 -2 -5 -13z"/>
<path d="M452 868 c-31 -71 -34 -104 -5 -60 11 15 25 22 48 22 23 0 37 -7 48
-22 8 -13 18 -20 21 -17 10 10 -55 149 -68 149 -7 0 -26 -32 -44 -72z m68 -15
c0 -7 -11 -13 -25 -13 -27 0 -31 10 -14 42 11 21 12 21 25 3 8 -10 14 -25 14
-32z"/>
<path d="M597 923 c-9 -37 -2 -126 11 -130 8 -3 12 10 12 48 l0 52 42 -52 c23
-28 45 -51 50 -51 4 0 8 34 8 75 0 85 -17 103 -22 23 l-3 -52 -40 52 c-42 56
-51 61 -58 35z"/>
<path d="M770 865 c0 -43 4 -75 10 -75 6 0 10 32 10 75 0 43 -4 75 -10 75 -6
0 -10 -32 -10 -75z"/>
<path d="M830 865 c0 -60 3 -75 15 -75 11 0 15 12 15 48 l0 47 22 -37 c12 -21
25 -38 29 -38 4 0 18 17 31 38 l23 37 3 -47 c5 -77 22 -55 22 27 0 41 -4 75
-9 75 -5 0 -23 -23 -39 -51 l-29 -51 -31 51 c-18 28 -36 51 -42 51 -6 0 -10
-31 -10 -75z"/>
<path d="M1050 874 c-16 -37 -30 -71 -30 -75 0 -17 19 -9 25 11 5 15 15 20 45
20 30 0 40 -5 45 -20 3 -11 13 -20 20 -20 11 0 6 19 -18 72 -18 39 -38 73 -44
75 -7 3 -26 -25 -43 -63z m58 2 c12 -27 7 -36 -20 -36 -18 0 -23 16 -12 44 9
23 19 20 32 -8z"/>
<path d="M1190 865 l0 -75 50 0 c58 0 68 17 13 22 l-38 3 -3 63 c-4 88 -22 78
-22 -13z"/>
<path d="M1310 887 c16 -30 30 -63 30 -75 0 -12 5 -22 10 -22 6 0 10 13 10 28
0 15 4 32 8 38 5 5 19 26 31 47 17 28 19 37 8 37 -7 0 -22 -16 -33 -35 -10
-19 -21 -35 -24 -35 -3 0 -14 16 -24 35 -11 19 -25 35 -33 35 -9 0 -4 -17 17
-53z"/>
<path d="M1440 882 c0 -66 18 -92 62 -92 40 0 58 29 58 93 0 74 -18 74 -22 1
-2 -41 -8 -60 -20 -68 -33 -20 -53 4 -56 68 -4 74 -22 72 -22 -2z"/>
<path d="M1120 704 c0 -41 -29 -85 -65 -100 -25 -10 -78 -14 -191 -14 -136 0
-160 2 -177 18 -19 17 -19 16 -12 -28 4 -25 17 -83 28 -130 l22 -85 3 58 c3
66 21 77 24 15 1 -41 1 -41 5 -8 6 45 20 60 27 29 3 -13 7 -33 9 -44 3 -11 5
0 6 25 1 51 17 44 24 -10 l4 -35 1 37 c3 50 22 60 23 11 1 -39 3 -38 14 11 7
35 16 28 25 -21 l8 -38 1 43 c0 23 6 42 11 42 6 0 11 -19 12 -42 1 -41 1 -41
5 -8 6 49 23 63 24 20 l1 -35 13 35 13 35 7 -30 c11 -50 13 -52 14 -12 1 54
21 45 23 -10 1 -48 1 -48 5 -8 5 43 23 74 23 38 0 -12 5 -25 10 -28 6 -4 10 5
10 20 0 15 4 24 10 20 6 -3 10 -27 10 -53 l1 -47 28 71 c38 96 62 128 110 144
49 16 66 34 76 78 l7 32 -62 0 c-33 0 -76 7 -95 14 -35 15 -35 15 -35 -10z
m93 -39 c1 -5 -6 -11 -15 -13 -11 -2 -18 3 -18 13 0 17 30 18 33 0z"/>
</g>
</svg>
