<?xml version="1.0" standalone="no"?>
<!DOCTYPE svg PUBLIC "-//W3C//DTD SVG 20010904//EN"
 "http://www.w3.org/TR/2001/REC-SVG-20010904/DTD/svg10.dtd">
<svg version="1.0" xmlns="http://www.w3.org/2000/svg"
 width="1280.000000pt" height="1280.000000pt" viewBox="0 0 1280.000000 1280.000000"
 preserveAspectRatio="xMidYMid meet">

<g transform="translate(0.000000,1280.000000) scale(0.100000,-0.100000)"
fill="#000000" stroke="none">
<path d="M9030 8373 c0 -21 287 -740 371 -931 72 -161 128 -272 140 -272 25 0
54 79 99 270 31 133 106 301 217 491 120 206 137 240 169 335 30 90 27 124
-12 124 -39 0 -132 -96 -248 -254 -55 -77 -129 -169 -162 -204 -54 -56 -64
-63 -82 -53 -27 14 -111 112 -214 251 -101 135 -137 176 -196 225 -47 38 -82
46 -82 18z"/>
<path d="M2193 8343 c-140 -181 -349 -625 -473 -1006 -64 -194 -64 -255 -1
-164 106 155 362 290 552 291 71 1 82 -2 170 -46 64 -32 125 -73 189 -129 115
-99 137 -111 156 -84 24 33 -5 159 -93 397 -125 340 -280 637 -386 740 -51 49
-77 49 -114 1z m90 -364 c74 -96 123 -190 133 -255 21 -142 -220 -222 -327
-108 -42 45 -29 140 42 306 16 37 38 88 49 114 12 26 24 43 29 38 4 -5 38 -48
74 -95z"/>
<path d="M3162 8358 c-29 -32 -57 -102 -71 -179 -29 -171 2 -672 55 -877 40
-155 99 -130 138 59 21 107 27 164 40 396 l11 208 164 -203 c301 -373 433
-512 530 -558 47 -23 75 -8 89 48 47 188 51 773 7 983 -17 78 -44 116 -69 96
-38 -32 -72 -224 -101 -576 -16 -187 -20 -215 -28 -204 -2 2 -91 112 -197 244
-318 395 -489 585 -528 585 -10 0 -28 -10 -40 -22z"/>
<path d="M5165 8326 c-9 -13 -20 -48 -26 -77 -16 -88 -23 -586 -10 -774 21
-324 48 -393 121 -315 70 75 117 273 128 542 l7 182 114 -180 c127 -200 238
-359 270 -388 18 -16 23 -17 37 -5 31 26 218 282 340 467 114 171 124 184 124
152 3 -207 22 -543 35 -615 17 -97 60 -205 74 -189 17 17 49 138 62 234 18
128 19 730 1 853 -14 95 -28 137 -47 137 -40 0 -134 -91 -240 -232 -99 -132
-170 -247 -260 -428 l-76 -152 -197 294 c-276 412 -362 518 -418 518 -14 0
-30 -10 -39 -24z"/>
<path d="M7268 8293 c-33 -32 -82 -92 -110 -133 -174 -265 -463 -971 -419
-1024 7 -8 21 -12 33 -8 34 8 168 142 200 199 34 60 57 77 148 108 142 48 307
58 378 21 18 -9 91 -72 162 -141 122 -116 206 -175 230 -160 18 11 11 57 -30
176 -59 175 -159 409 -275 647 -145 297 -193 372 -236 372 -11 0 -48 -26 -81
-57z m102 -270 c12 -15 45 -74 73 -131 41 -83 52 -115 55 -166 7 -108 -40
-166 -132 -166 -112 0 -189 96 -189 235 0 85 23 144 83 209 50 54 79 59 110
19z"/>
<path d="M8231 8318 c-25 -81 -35 -268 -35 -733 l-1 -480 100 -3 c108 -4 361
13 453 29 145 25 250 70 239 102 -10 33 -160 67 -295 67 -76 0 -189 28 -217
53 -44 41 -89 227 -130 547 -30 224 -59 380 -81 421 -8 16 -16 29 -18 29 -3 0
-9 -15 -15 -32z"/>
<path d="M10367 8332 c-38 -42 -52 -145 -51 -392 0 -381 43 -551 173 -680 100
-100 239 -148 377 -129 145 20 301 146 373 301 50 108 69 184 83 342 20 221
-19 544 -68 563 -41 15 -64 -49 -105 -297 -88 -539 -129 -659 -238 -715 -103
-51 -193 -25 -261 77 -55 82 -84 180 -134 453 -81 439 -107 523 -149 477z"/>
<path d="M4652 8296 c-6 -13 -17 -61 -24 -107 -18 -114 -18 -724 0 -828 31
-182 68 -162 93 50 15 136 15 606 -1 733 -18 153 -43 207 -68 152z"/>
<path d="M7581 6512 c-14 -26 -31 -135 -31 -201 0 -172 -132 -423 -325 -617
-111 -112 -151 -137 -255 -159 -432 -91 -1968 -128 -2675 -64 -220 19 -278 33
-412 99 -70 34 -123 54 -123 47 0 -33 52 -406 70 -507 45 -247 213 -968 291
-1249 28 -98 58 -167 68 -155 5 5 16 81 25 169 28 272 67 460 107 516 l20 29
1438 0 c1357 0 1439 -1 1453 -17 43 -50 59 -176 66 -542 l7 -303 149 353 c196
464 254 595 337 761 122 244 198 358 318 479 96 96 217 175 434 285 267 134
374 210 463 325 88 115 176 350 178 479 1 60 -1 65 -26 77 -16 8 -101 17 -215
23 -292 15 -529 46 -1048 139 -328 58 -302 55 -314 33z m713 -382 c93 -35 84
-132 -15 -160 -66 -19 -173 20 -185 67 -8 32 3 51 46 81 36 24 108 30 154 12z"/>
</g>
</svg>
